Coordinates
version=1
nRows=11
nColumns=40
inDegrees=yes

Units are S.I. units (second, meters, Newtons, ...)
If the header above contains a line with 'inDegrees', this indicates whether rotational values are in degrees (yes) or radians (no).

endheader
time	pelvis_tilt	pelvis_list	pelvis_rotation	pelvis_tx	pelvis_ty	pelvis_tz	hip_flexion_r	hip_adduction_r	hip_rotation_r	knee_angle_r	knee_angle_r_beta	ankle_angle_r	subtalar_angle_r	mtp_angle_r	hip_flexion_l	hip_adduction_l	hip_rotation_l	knee_angle_l	knee_angle_l_beta	ankle_angle_l	subtalar_angle_l	mtp_angle_l	lumbar_extension	lumbar_bending	lumbar_rotation	arm_flex_r	arm_add_r	arm_rot_r	elbow_flex_r	pro_sup_r	wrist_flex_r	wrist_dev_r	arm_flex_l	arm_add_l	arm_rot_l	elbow_flex_l	pro_sup_l	wrist_flex_l	wrist_dev_l
      0.36000000	     22.58444982	     -0.40152926	      3.04511126	      0.49949148	      0.96883434	     -0.31248027	     -9.71431323	      3.68340014	     -4.32344478	     23.22133921	      0.40528883	     -3.34607486	      0.00000000	      0.00000000	    -17.00531351	     -5.48918748	      0.82771579	     59.49634507	      1.03840711	    -23.88389938	      0.00000000	      0.00000000	    -35.44589719	      3.49242078	     -2.06846745	     -0.01900251	    -14.89186342	      8.61668368	     42.47022307	     75.34759750	      0.00000000	      0.00000000	      5.64151413	    -23.32685422	     24.88172270	     46.35616388	     82.86252445	      0.00000000	      0.00000000
      0.36400000	     22.70998327	     -0.37017979	      2.95506236	      0.50523164	      0.97010716	     -0.31227396	    -10.57822121	      3.71468996	     -4.18150583	     22.56426608	      0.39382074	     -3.37272917	      0.00000000	      0.00000000	    -16.55224459	     -5.38889064	      0.88742628	     59.67778959	      1.04157392	    -22.99528337	      0.00000000	      0.00000000	    -35.53758543	      3.39511249	     -1.91798534	      0.03435060	    -14.89505034	      8.63106400	     42.80694249	     75.27401217	      0.00000000	      0.00000000	      5.44255592	    -23.30364872	     24.74442869	     46.29069712	     83.05773131	      0.00000000	      0.00000000
      0.36800000	     22.78794108	     -0.35117929	      2.74262488	      0.51063046	      0.97123401	     -0.31199542	    -11.13793987	      3.64759230	     -4.37038090	     22.38310788	      0.39065893	     -3.32487269	      0.00000000	      0.00000000	    -16.00352338	     -5.28775548	      0.79018916	     59.75695084	      1.04295554	    -22.82257895	      0.00000000	      0.00000000	    -35.59828455	      3.23969918	     -1.67023659	      0.21503878	    -14.85379602	      8.62824917	     42.97420742	     75.26873077	      0.00000000	      0.00000000	      5.29686639	    -23.32037956	     24.68446571	     46.25426167	     83.07866819	      0.00000000	      0.00000000
      0.37200000	     23.38720861	     -0.35196759	      2.93803185	      0.51760992	      0.97313867	     -0.31178632	    -13.09205615	      3.89336518	     -4.34358492	     20.69767205	      0.36124252	     -3.77113082	      0.00000000	      0.00000000	    -16.25480971	     -5.46657956	      0.80162635	     59.61387055	      1.04045832	    -21.67356353	      0.00000000	      0.00000000	    -36.05537499	      3.28729748	     -1.70941648	     -0.02100999	    -14.80244929	      8.45135605	     43.54519865	     75.15789385	      0.00000000	      0.00000000	      4.82626732	    -23.36204810	     24.21598809	     46.44955178	     83.93147706	      0.00000000	      0.00000000
      0.37600000	     23.39072002	     -0.18850385	      2.72615041	      0.52317410	      0.97413872	     -0.31143211	    -13.71086245	      3.69735911	     -4.41788468	     20.27880310	      0.35393188	     -3.65287477	      0.00000000	      0.00000000	    -15.63161786	     -5.21013409	      0.69561195	     59.68175235	      1.04164308	    -21.27950943	      0.00000000	      0.00000000	    -36.04527284	      2.97671919	     -1.50595056	      0.04077266	    -14.80902016	      8.35694739	     43.76808480	     75.04467416	      0.00000000	      0.00000000	      4.61045931	    -23.36724607	     24.08013831	     46.47182263	     83.94342933	      0.00000000	      0.00000000
      0.38000000	     23.74456269	     -0.19943551	      2.72516930	      0.52941510	      0.97564413	     -0.31116920	    -15.07949775	      3.83646784	     -4.33740223	     19.14338591	      0.33411511	     -3.96054492	      0.00000000	      0.00000000	    -15.55964155	     -5.22934755	      0.69403747	     59.51458014	      1.03872538	    -20.32958153	      0.00000000	      0.00000000	    -36.30154166	      2.94520961	     -1.43285688	      0.07589284	    -14.74737872	      8.41708676	     44.06279915	     74.37991733	      0.00000000	      0.00000000	      4.30550898	    -23.36590071	     23.79764617	     46.48810110	     84.26817926	      0.00000000	      0.00000000
      0.38400000	     23.71430567	     -0.01871560	      2.52830747	      0.53491745	      0.97652941	     -0.31109699	    -15.66291481	      3.61144297	     -4.27871602	     18.71073004	      0.32656384	     -3.88545419	      0.00000000	      0.00000000	    -14.92808449	     -4.91900441	      0.60311970	     59.47697631	      1.03806907	    -19.80544480	      0.00000000	      0.00000000	    -36.25364576	      2.65468495	     -1.26393033	      0.12861464	    -14.78252084	      8.47742184	     44.39003346	     74.33682731	      0.00000000	      0.00000000	      4.18356720	    -23.27886377	     23.66113610	     46.32896981	     84.29464985	      0.00000000	      0.00000000
      0.38800000	     23.86809812	      0.02630356	      2.43841348	      0.54064076	      0.97764980	     -0.31088618	    -16.56844867	      3.60296633	     -4.33209896	     17.99135507	      0.31400838	     -4.05286347	      0.00000000	      0.00000000	    -14.54951718	     -4.80440021	      0.57746189	     59.34308086	      1.03573215	    -18.96886215	      0.00000000	      0.00000000	    -36.37725101	      2.53283849	     -1.12265144	      0.17965400	    -14.75151923	      8.37060403	     44.72796369	     74.17803380	      0.00000000	      0.00000000	      3.92877554	    -23.24926945	     23.37730707	     46.31125424	     84.30590008	      0.00000000	      0.00000000
      0.39200000	     23.78928172	      0.14063201	      2.18628705	      0.54643842	      0.97835503	     -0.31043515	    -17.21346375	      3.47831492	     -4.02086387	     17.34647210	      0.30275305	     -4.00739370	      0.00000000	      0.00000000	    -13.94266486	     -4.56953481	      0.39965108	     59.18731488	      1.03301352	    -18.32321036	      0.00000000	      0.00000000	    -36.23887862	      2.22910353	     -0.87890328	      0.14593136	    -14.77512923	      8.34777944	     45.09012026	     74.22354029	      0.00000000	      0.00000000	      3.65829394	    -23.25943449	     23.16985449	     46.39401539	     84.33847810	      0.00000000	      0.00000000
      0.39600000	     24.15135728	      0.26907317	      2.36874436	      0.55238545	      0.97967416	     -0.31035478	    -18.54902397	      3.51283259	     -4.25480234	     16.27117507	      0.28398558	     -4.36801282	      0.00000000	      0.00000000	    -13.81030520	     -4.47270972	      0.59852379	     58.89350096	      1.02788550	    -17.68635520	      0.00000000	      0.00000000	    -36.54079761	      2.16580930	     -1.05540046	      0.21315018	    -14.70213258	      8.43392306	     45.42559049	     74.28069175	      0.00000000	      0.00000000	      3.30073498	    -23.35049925	     22.80681198	     46.60499961	     84.45896304	      0.00000000	      0.00000000
      0.40000000	     24.04011158	      0.39283764	      2.20532555	      0.55781389	      0.98020151	     -0.31007544	    -18.99334357	      3.35426564	     -4.39400212	     15.90034194	      0.27751332	     -4.26099835	      0.00000000	      0.00000000	    -13.08393688	     -4.27240972	      0.44014979	     58.72698514	      1.02497925	    -17.18351423	      0.00000000	      0.00000000	    -36.40073177	      1.90912620	     -0.86138888	      0.28568460	    -14.68807456	      8.44645558	     45.66877736	     74.27758171	      0.00000000	      0.00000000	      3.15802395	    -23.36174144	     22.70611282	     46.60323252	     84.43276413	      0.00000000	      0.00000000
